<?xml version="1.0" encoding="utf-8"?>
<!-- Generator: Adobe Illustrator 13.0.0, SVG Export Plug-In . SVG Version: 6.00 Build 14948)  -->
<!DOCTYPE svg PUBLIC "-//W3C//DTD SVG 1.1//EN" "http://www.w3.org/Graphics/SVG/1.1/DTD/svg11.dtd">
<svg version="1.1" id="Layer_1" xmlns="http://www.w3.org/2000/svg" xmlns:xlink="http://www.w3.org/1999/xlink" x="0px" y="0px"
	 width="1133.858px" height="765.756px" viewBox="0 0 1133.858 765.756" enable-background="new 0 0 1133.858 765.756"
	 xml:space="preserve">
<rect fill="#E64980" width="1133.858" height="418.125"/>
<circle fill="#FFFFFF" cx="568.296" cy="419.395" r="224.247"/>
<circle fill="#F57ABC" cx="568.297" cy="419.395" r="195.391"/>
<g>
	<circle fill="#E64980" cx="630.344" cy="341.796" r="40.766"/>
	<circle fill="#E64980" cx="504.575" cy="341.796" r="40.766"/>
</g>
<g>
	<path d="M422.758,437.772c0.636-2.187,1.661-3.847,3.074-4.986c1.411-1.138,2.913-1.797,4.507-1.98
		c1.592-0.182,3.119,0.091,4.576,0.819c1.456,0.729,2.595,1.867,3.416,3.415c1-0.547,2.002-1.046,3.005-1.503
		c1.001-0.454,2.139-0.864,3.415-1.229c5.827-1.548,10.996-1.435,15.504,0.341c4.508,1.776,8.264,4.508,11.27,8.196
		c3.005,3.688,5.144,8.015,6.42,12.978c1.274,4.964,1.571,9.926,0.888,14.889c-0.683,4.965-2.438,9.609-5.259,13.934
		c-2.824,4.326-6.877,7.673-12.157,10.041c-3.462,1.546-7.082,2.526-10.86,2.937c-3.78,0.41-7.537,0.478-11.27,0.205
		c0,0.09,0.021,0.818,0.069,2.185c0.045,1.367,0.068,3.096,0.068,5.191c0,2.094,0,4.371,0,6.83s-0.068,4.826-0.205,7.104
		c-0.137,2.275-0.32,4.303-0.546,6.078c-0.229,1.776-0.57,2.981-1.025,3.62c-1.185,1.729-2.642,2.822-4.371,3.278
		c-1.731,0.455-3.37,0.387-4.918-0.205c-1.549-0.593-2.892-1.594-4.029-3.005c-1.14-1.413-1.708-3.121-1.708-5.122v-83.19
		L422.758,437.772z M440.243,455.53c-0.273,0.457-0.41,0.662-0.41,0.614c0-0.045-0.184,0.115-0.547,0.479v22.539
		c1.821,0.273,3.642,0.41,5.464,0.41c1.821,0,3.733-0.273,5.737-0.82c4.098-1.001,7.33-2.981,9.699-5.941
		c2.367-2.958,3.278-6.626,2.732-10.996c-0.273-1.821-0.798-3.711-1.571-5.67c-0.774-1.956-1.799-3.619-3.073-4.985
		c-1.276-1.366-2.779-2.323-4.508-2.869c-1.731-0.546-3.688-0.362-5.874,0.546c-1.549,0.639-2.937,1.596-4.166,2.869
		C442.497,452.981,441.336,454.256,440.243,455.53z"/>
	<path d="M490.101,412.365c0.363-3.369,1.524-5.851,3.483-7.445c1.958-1.592,4.03-2.368,6.216-2.323
		c2.186,0.047,4.211,0.888,6.079,2.527c1.865,1.64,2.845,3.961,2.937,6.967c0.182,3.097-0.615,5.488-2.391,7.172
		c-1.776,1.686-3.804,2.642-6.079,2.868c-2.277,0.229-4.418-0.386-6.42-1.844c-2.004-1.456-3.233-3.778-3.688-6.966L490.101,412.365
		z M508.132,490.09c-0.184,1.823-0.82,3.439-1.913,4.851c-1.092,1.41-2.345,2.435-3.756,3.072c-1.413,0.637-2.937,0.772-4.576,0.41
		c-1.639-0.365-3.097-1.366-4.371-3.005c-0.73-0.911-1.253-1.934-1.571-3.074c-0.32-1.138-0.525-2.321-0.615-3.552
		c-0.092-1.229-0.116-2.458-0.068-3.688c0.045-1.229,0.068-2.344,0.068-3.347c-0.092-5.372-0.116-10.7-0.068-15.982
		c0.045-5.28,0.021-10.608-0.068-15.982c0-2.186-0.136-4.393-0.41-6.625c-0.273-2.231-0.136-4.44,0.41-6.625
		c0.455-1.64,1.25-3.051,2.39-4.234c1.138-1.183,2.412-2.003,3.826-2.459c1.411-0.455,2.868-0.5,4.371-0.137
		c1.502,0.365,2.8,1.321,3.893,2.868c1.456,1.822,2.186,3.62,2.186,5.396c0,1.776,0,3.94,0,6.489c0,3.097,0,6.193,0,9.288
		c0,3.098,0.044,6.147,0.136,9.152c0.09,4.372,0.137,8.743,0.137,13.114s0,8.742,0,13.114V490.09z"/>
	<path d="M527.256,522.465c-1.55-1.913-2.369-3.894-2.459-5.942c-0.092-2.049,0.363-3.803,1.366-5.259
		c1.001-1.458,2.436-2.459,4.303-3.006c1.865-0.546,3.938-0.272,6.215,0.82c1.001,0.728,1.912,1.273,2.732,1.639
		c0.82,0.363,1.958,0.909,3.415,1.64c1.366,0.636,2.914,1.114,4.645,1.435c1.729,0.317,3.368,0.387,4.918,0.204
		c3.094-0.183,5.485-0.706,7.171-1.57c1.684-0.866,2.89-2.004,3.62-3.415c0.728-1.413,1.162-3.142,1.298-5.191
		c0.137-2.049,0.205-4.35,0.205-6.897c-2.916,1.001-5.829,1.752-8.743,2.254c-2.916,0.499-5.921,0.567-9.016,0.205
		c-6.011-0.73-10.952-2.869-14.821-6.421c-3.872-3.552-6.693-7.786-8.469-12.704s-2.506-10.177-2.186-15.777
		c0.318-5.601,1.616-10.769,3.893-15.504c1.366-2.732,3.231-5.259,5.601-7.582c2.367-2.321,5.031-4.234,7.991-5.737
		c2.958-1.502,6.055-2.479,9.289-2.937c3.231-0.454,6.352-0.182,9.357,0.819c1.729,0.639,3.415,1.276,5.054,1.913
		c1.639,0.638,3.231,1.457,4.781,2.459c1.729-1.548,3.756-2.323,6.079-2.323c2.322,0,4.303,1.093,5.94,3.279
		c0.364,0.546,0.774,1.161,1.23,1.844s0.683,1.345,0.683,1.98c0.09,9.746,0.113,19.466,0.069,29.164
		c-0.048,9.699-0.069,19.422-0.069,29.165c0,3.914-0.525,7.558-1.57,10.928c-1.049,3.368-2.619,6.352-4.713,8.948
		c-2.096,2.595-4.691,4.712-7.786,6.352c-3.097,1.64-6.693,2.685-10.792,3.142c-2.096,0.182-4.145,0.273-6.147,0.273
		c-2.004,0-4.053-0.229-6.147-0.684c-2.916-0.546-5.716-1.457-8.401-2.731c-2.687-1.276-5.351-2.688-7.991-4.235L527.256,522.465z
		 M543.375,480.801c4.006,1.913,7.694,2.528,11.065,1.845c3.368-0.683,6.783-2.207,10.245-4.576v-21.72
		c-2.643-2.641-5.214-4.484-7.718-5.532c-2.506-1.046-5.487-1.343-8.947-0.888c-0.638,0.364-1.253,0.683-1.844,0.956
		c-0.593,0.273-1.208,0.546-1.844,0.819c-1.912,2.186-3.37,4.304-4.371,6.353c-1.003,2.049-1.594,4.145-1.775,6.283
		c-0.184,2.142-0.024,4.326,0.478,6.557c0.499,2.233,1.25,4.668,2.253,7.309c0.273,0.456,0.683,0.911,1.229,1.366
		C542.692,480.028,543.102,480.438,543.375,480.801z"/>
	<path d="M597.057,522.465c-1.55-1.913-2.369-3.894-2.459-5.942c-0.091-2.049,0.363-3.803,1.367-5.259
		c1.001-1.458,2.435-2.459,4.303-3.006c1.865-0.546,3.938-0.272,6.215,0.82c1.001,0.728,1.912,1.273,2.732,1.639
		c0.819,0.363,1.957,0.909,3.414,1.64c1.366,0.636,2.914,1.114,4.646,1.435c1.729,0.317,3.368,0.387,4.917,0.204
		c3.095-0.183,5.485-0.706,7.172-1.57c1.684-0.866,2.89-2.004,3.62-3.415c0.728-1.413,1.16-3.142,1.298-5.191
		c0.137-2.049,0.204-4.35,0.204-6.897c-2.915,1.001-5.828,1.752-8.742,2.254c-2.916,0.499-5.921,0.567-9.016,0.205
		c-6.01-0.73-10.952-2.869-14.821-6.421c-3.872-3.552-6.693-7.786-8.47-12.704c-1.775-4.918-2.505-10.177-2.185-15.777
		c0.317-5.601,1.615-10.769,3.893-15.504c1.366-2.732,3.231-5.259,5.601-7.582c2.367-2.321,5.03-4.234,7.991-5.737
		c2.959-1.502,6.056-2.479,9.289-2.937c3.231-0.454,6.353-0.182,9.357,0.819c1.729,0.639,3.414,1.276,5.054,1.913
		c1.64,0.638,3.231,1.457,4.781,2.459c1.729-1.548,3.757-2.323,6.078-2.323c2.323,0,4.304,1.093,5.942,3.279
		c0.363,0.546,0.773,1.161,1.229,1.844c0.455,0.683,0.683,1.345,0.683,1.98c0.09,9.746,0.114,19.466,0.069,29.164
		c-0.048,9.699-0.069,19.422-0.069,29.165c0,3.914-0.524,7.558-1.57,10.928c-1.048,3.368-2.619,6.352-4.713,8.948
		c-2.096,2.595-4.691,4.712-7.785,6.352c-3.098,1.64-6.694,2.685-10.793,3.142c-2.096,0.182-4.145,0.273-6.146,0.273
		c-2.004,0-4.054-0.229-6.147-0.684c-2.915-0.546-5.716-1.457-8.4-2.731c-2.688-1.276-5.351-2.688-7.991-4.235L597.057,522.465z
		 M613.177,480.801c4.005,1.913,7.694,2.528,11.063,1.845c3.369-0.683,6.783-2.207,10.245-4.576v-21.72
		c-2.642-2.641-5.214-4.484-7.718-5.532c-2.505-1.046-5.487-1.343-8.947-0.888c-0.639,0.364-1.252,0.683-1.844,0.956
		c-0.594,0.273-1.209,0.546-1.845,0.819c-1.912,2.186-3.369,4.304-4.371,6.353c-1.003,2.049-1.594,4.145-1.776,6.283
		c-0.183,2.142-0.022,4.326,0.479,6.557c0.499,2.233,1.251,4.668,2.255,7.309c0.272,0.456,0.683,0.911,1.229,1.366
		C612.493,480.028,612.902,480.438,613.177,480.801z"/>
	<path d="M706.336,433.675c1.093-1.821,2.459-3.074,4.098-3.757c1.639-0.684,3.255-0.842,4.85-0.479
		c1.592,0.365,3.005,1.185,4.234,2.459c1.229,1.276,1.98,2.96,2.254,5.054c0.182,1.55-0.115,3.735-0.888,6.558
		c-0.775,2.823-1.73,5.736-2.869,8.742c-1.14,3.005-2.301,5.874-3.483,8.605c-1.184,2.732-2.14,4.873-2.868,6.421
		c-3.097,6.83-6.468,13.522-10.108,20.08c-3.644,6.557-7.377,13.066-11.201,19.534c-0.547,1-1.185,2.23-1.912,3.688
		c-0.73,1.455-1.481,2.958-2.254,4.508c-0.775,1.547-1.571,3.005-2.391,4.37c-0.82,1.366-1.595,2.368-2.322,3.006
		c-1.64,1.548-3.326,2.459-5.055,2.732c-1.73,0.272-3.302,0.044-4.713-0.684c-1.413-0.73-2.551-1.868-3.414-3.415
		c-0.867-1.55-1.209-3.415-1.025-5.601c0.09-0.819,0.455-1.891,1.093-3.21c0.636-1.321,1.366-2.688,2.187-4.098
		c0.818-1.414,1.639-2.757,2.458-4.03c0.819-1.276,1.456-2.322,1.912-3.142c1.821-3.006,3.573-6.011,5.26-9.016
		c1.684-3.006,3.392-6.011,5.123-9.016c-6.011-5.008-11.226-10.587-15.642-16.734c-4.418-6.146-7.811-12.908-10.177-20.284
		c-0.456-1.275-0.911-2.549-1.366-3.825c-0.457-1.274-0.593-2.596-0.41-3.962c0.183-1.547,0.615-2.937,1.298-4.166
		c0.684-1.229,1.571-2.23,2.664-3.005c1.093-0.772,2.344-1.206,3.757-1.298c1.411-0.09,2.845,0.228,4.303,0.956
		c1.183,0.638,2.117,1.525,2.801,2.663c0.683,1.141,1.251,2.369,1.707,3.689c0.455,1.32,0.841,2.663,1.161,4.029
		c0.317,1.366,0.704,2.595,1.161,3.688c3.641,9.016,9.152,16.713,16.528,23.086c2.641-5.464,5.007-10.949,7.104-16.46
		c2.094-5.51,3.962-11.134,5.601-16.871L706.336,433.675z"/>
</g>
<text transform="matrix(0.968 -0.2508 0.2508 0.968 569.9346 687.5381)"><tspan x="0" y="0" fill="#E64980" font-family="'Chalkboard-Bold'" font-size="44.5067">Theres snout better</tspan><tspan x="25.032" y="53.408" fill="#E64980" font-family="'Chalkboard-Bold'" font-size="44.5067">spendin tracker...</tspan></text>
</svg>
